<?xml version="1.0" encoding="UTF-8"?>
<svg version="1.1" xmlns="http://www.w3.org/2000/svg" width="1329" height="1318">
<path d="M0 0 C438.57 0 877.14 0 1329 0 C1329 434.94 1329 869.88 1329 1318 C890.43 1318 451.86 1318 0 1318 C0 883.06 0 448.12 0 0 Z " fill="#FEFEFE" transform="translate(0,0)"/>
<path d="M0 0 C438.57 0 877.14 0 1329 0 C1329 434.94 1329 869.88 1329 1318 C890.43 1318 451.86 1318 0 1318 C0 883.06 0 448.12 0 0 Z M596.375 6.1875 C595.31218811 6.29737244 594.24937622 6.40724487 593.15435791 6.52044678 C535.82532191 12.5133007 478.47918246 25.16080938 425 47 C424.40137146 47.24365295 423.80274292 47.48730591 423.18597412 47.73834229 C402.74898781 56.06740514 382.72415592 65.09930779 363 75 C362.09620605 75.4532666 361.19241211 75.9065332 360.26123047 76.37353516 C332.21406651 90.54685447 305.39782387 107.52649996 280 126 C278.70709214 126.9323761 277.41412354 127.86466799 276.12109375 128.796875 C267.57671065 134.98403665 259.21939546 141.38777275 251 148 C250.32146973 148.5455957 249.64293945 149.09119141 248.94384766 149.65332031 C240.33840356 156.59806467 231.9601481 163.70313425 223.90234375 171.27734375 C221.34030443 173.68076422 218.74683329 176.03730628 216.125 178.375 C197.26777928 195.25698486 197.26777928 195.25698486 180 213.71875 C177.83097052 216.19279925 175.59144492 218.589052 173.33911133 220.98706055 C168.11084349 226.55489399 163.0838735 232.19324705 158.30859375 238.16015625 C156.10812288 240.86699605 153.8485995 243.50680507 151.56103516 246.13964844 C146.18188724 252.3348385 141.06498111 258.64149005 136.24414062 265.28759766 C134.85336538 267.20182402 133.44993393 269.1064794 132.046875 271.01171875 C114.06529128 295.54434731 97.35370749 321.1716599 83 348 C82.61070313 348.71833008 82.22140625 349.43666016 81.8203125 350.17675781 C65.46883685 380.3548489 51.50893615 411.66763172 40 444 C39.57219238 445.19351074 39.14438477 446.38702148 38.70361328 447.61669922 C22.2129052 493.87554122 12.2516702 542.22291602 7 591 C6.9164325 591.77267212 6.83286499 592.54534424 6.74676514 593.34143066 C2.07236817 637.26991559 2.18764808 682.09198828 7 726 C7.12375 727.15036743 7.12375 727.15036743 7.25 728.32397461 C13.52946921 786.3426473 26.92647446 843.91048274 49 898 C49.67171309 899.70397806 50.34241785 901.40835427 51.01171875 903.11328125 C54.90325811 912.8371122 59.32226003 922.34944568 63.61230469 931.90185547 C64.71275326 934.35869789 65.80176873 936.81975872 66.8828125 939.28515625 C70.82391127 948.06845929 75.48777444 956.37201234 80.29467773 964.70800781 C82.82332909 969.09817049 85.27824026 973.48275928 87.50390625 978.03515625 C90.15125303 983.41423797 93.18110458 988.51566913 96.3125 993.625 C97.21403809 995.10021118 97.21403809 995.10021118 98.13378906 996.60522461 C110.64246407 1016.90853236 124.10771986 1036.58129326 138.75878906 1055.39550781 C139.99397105 1056.99220648 141.21393723 1058.59940713 142.4296875 1060.2109375 C150.74473745 1071.20552188 159.7344972 1081.57526882 168.99609375 1091.78125 C170.81311982 1093.79308393 172.59944392 1095.82660434 174.375 1097.875 C181.85011382 1106.42285225 189.57375299 1114.68160714 197.5625 1122.75 C198.61715454 1123.82411133 198.61715454 1123.82411133 199.69311523 1124.91992188 C200.35255127 1125.58056641 201.0119873 1126.24121094 201.69140625 1126.921875 C202.28123291 1127.51581055 202.87105957 1128.10974609 203.47875977 1128.72167969 C204.92402432 1130.21444442 204.92402432 1130.21444442 207 1130 C207 1130.66 207 1131.32 207 1132 C208.64351457 1133.36176922 210.31522656 1134.68962066 212 1136 C213.67243363 1137.66087968 215.33808164 1139.32859851 217 1141 C225.0290773 1148.7204138 233.29387882 1156.04800102 242 1163 C243.79279001 1164.47780494 245.5844401 1165.95699376 247.375 1167.4375 C258.88510379 1176.83416666 270.79957478 1185.53039151 283 1194 C283.76119141 1194.53028809 284.52238281 1195.06057617 285.30664062 1195.60693359 C310.34362051 1213.02282441 336.2645846 1228.87815768 363.45800781 1242.70556641 C365.66267024 1243.8282249 367.85994232 1244.96360057 370.0546875 1246.10546875 C443.93996555 1284.21981402 524.76735277 1303.97099528 607.0234375 1312.16796875 C607.70695786 1312.23757309 608.39047821 1312.30717743 609.0947113 1312.37889099 C621.13008149 1313.55711053 633.13487194 1314.15684498 645.2265625 1314.16796875 C646.53491058 1314.17129715 647.84325867 1314.17462555 649.19125366 1314.17805481 C651.94587019 1314.18398281 654.70045569 1314.18590175 657.45507812 1314.18530273 C660.21002884 1314.18522224 662.96481054 1314.19205285 665.71972656 1314.20581055 C691.3601636 1314.33157713 716.81391713 1313.16251829 742.25 1309.75 C743.46162308 1309.5909317 743.46162308 1309.5909317 744.69772339 1309.4286499 C803.87523051 1301.62869987 862.82077125 1286.64993601 917.38378906 1262.17138672 C919.76567737 1261.10491601 922.15647234 1260.06425301 924.5546875 1259.03515625 C946.33534035 1249.63268756 967.64763277 1239.19842255 988 1227 C989.23882935 1226.25858765 989.23882935 1226.25858765 990.50268555 1225.50219727 C992.19512549 1224.48783428 993.88686558 1223.47230264 995.57788086 1222.45556641 C997.107357 1221.53643157 998.63797047 1220.61918424 1000.17016602 1219.70458984 C1012.09967524 1212.58027515 1023.62043432 1204.97083348 1035 1197 C1035.63389648 1196.5580127 1036.26779297 1196.11602539 1036.92089844 1195.66064453 C1051.12963114 1185.73468587 1064.81211551 1175.0686415 1078.37890625 1164.28759766 C1079.47365705 1163.41806216 1080.57005537 1162.55059745 1081.66796875 1161.68505859 C1083.2420841 1160.44231135 1084.80872802 1159.19011803 1086.375 1157.9375 C1087.26960938 1157.22464844 1088.16421875 1156.51179688 1089.0859375 1155.77734375 C1089.71757813 1155.19082031 1090.34921875 1154.60429688 1091 1154 C1091 1153.34 1091 1152.68 1091 1152 C1091.56332031 1151.75378906 1092.12664062 1151.50757813 1092.70703125 1151.25390625 C1100.17833389 1147.16823649 1106.29984364 1139.80587511 1112.1875 1133.75 C1114 1132 1114 1132 1116 1131 C1116 1130.34 1116 1129.68 1116 1129 C1116.53109375 1128.79375 1117.0621875 1128.5875 1117.609375 1128.375 C1121.00773436 1126.42038808 1123.51055928 1123.77876283 1126.25 1121 C1126.80429688 1120.4534375 1127.35859375 1119.906875 1127.9296875 1119.34375 C1130.99215775 1116.67399232 1130.99215775 1116.67399232 1132 1113 C1132.61875 1112.7525 1133.2375 1112.505 1133.875 1112.25 C1136.13746494 1111.17856271 1136.13746494 1111.17856271 1137 1109 C1138 1107 1138 1107 1139.86328125 1106.09375 C1142.27959058 1104.85688234 1143.4604643 1103.58097141 1145.1875 1101.5 C1148.76572123 1097.25280698 1152.50153489 1093.17363683 1156.27734375 1089.1015625 C1158.21131402 1087.19510178 1158.21131402 1087.19510178 1158 1085 C1158.66 1085 1159.32 1085 1160 1085 C1160 1084.34 1160 1083.68 1160 1083 C1160.66 1083 1161.32 1083 1162 1083 C1163.84847311 1080.8270767 1165.5921349 1078.64597332 1167.3125 1076.375 C1168.26605123 1075.13214003 1169.22047237 1073.88994698 1170.17578125 1072.6484375 C1170.87501709 1071.73336426 1170.87501709 1071.73336426 1171.58837891 1070.79980469 C1172.9654262 1069.0440813 1174.39851253 1067.35365924 1175.85546875 1065.6640625 C1178.20902004 1063.31033923 1178.20902004 1063.31033923 1178 1061 C1178.66 1061 1179.32 1061 1180 1061 C1181.31730567 1059.38600386 1182.55404267 1057.70586161 1183.75 1056 C1186.09659361 1052.6741193 1188.45947566 1049.37079708 1190.91015625 1046.12109375 C1203.26660134 1029.70939959 1214.4415495 1012.5306862 1224.89404297 994.85595703 C1226.03195303 992.94637815 1227.18726485 991.04833614 1228.34765625 989.15234375 C1232.26946905 982.7295703 1235.93805097 976.31136133 1239.21875 969.53125 C1241.1360536 965.7302797 1243.17561767 962.01276708 1245.23657227 958.28833008 C1266.35669577 920.08233749 1283.707464 877.78975821 1294.16894531 835.33886719 C1295.00938666 831.96228791 1295.87797983 828.59395415 1296.75123596 825.22575378 C1301.91917582 805.26957402 1306.76977912 785.37595892 1310 765 C1310.26586914 763.34895264 1310.26586914 763.34895264 1310.53710938 761.66455078 C1312.70317701 748.00933199 1314.37638421 734.32300195 1315.6875 720.5625 C1315.80689941 719.32089111 1315.92629883 718.07928223 1316.04931641 716.80004883 C1317.77710254 697.68063249 1318.21020845 678.56454135 1318.1875 659.375 C1318.18559662 657.70408798 1318.18559662 657.70408798 1318.18365479 655.99942017 C1318.06116771 599.21147473 1311.38464796 542.75497648 1296 488 C1295.47599609 486.13480713 1295.47599609 486.13480713 1294.94140625 484.23193359 C1286.845315 455.75104116 1277.02486595 428.06239489 1265 401 C1264.55688477 399.99952637 1264.11376953 398.99905273 1263.65722656 397.96826172 C1250.36901898 368.11590055 1235.19179003 339.75481375 1218 312 C1217.11489746 310.57034912 1217.11489746 310.57034912 1216.21191406 309.11181641 C1208.75649734 297.11679686 1200.99313319 285.44324931 1192.56591797 274.10839844 C1191.01447747 272.01949289 1189.47708007 269.9208262 1187.94140625 267.8203125 C1182.19239055 260.00325198 1176.1684688 252.52572986 1169.78515625 245.21875 C1167.35831742 242.43678403 1165.04528251 239.57946885 1162.75 236.6875 C1158.07361673 230.91482176 1152.97525448 225.55940831 1147.84667969 220.18823242 C1144.76798326 216.96106901 1141.7397292 213.72410277 1138.84765625 210.328125 C1133.96880553 204.70213128 1128.6478707 199.49892819 1123.37573242 194.24536133 C1121.56639067 192.44137915 1119.76245681 190.63211335 1117.95898438 188.82226562 C1112.14280786 183.00233325 1106.30548997 177.29489749 1100 172 C1098.85846167 171.01538081 1097.7178206 170.02972032 1096.578125 169.04296875 C1051.41681154 130.24249787 1002.63122777 95.95085383 948.93847656 69.94042969 C947.62838989 69.30485615 946.3204904 68.66475744 945.01464844 68.02050781 C895.314321 43.51302348 843.16049118 27.11363198 789.09991455 15.45379639 C787.19828593 15.04285005 785.29803239 14.62555328 783.39794922 14.20751953 C743.88684332 5.64192549 702.28351739 2.85538548 661.9375 2.8125 C661.10157318 2.81132172 660.26564636 2.81014343 659.40438843 2.80892944 C638.29551029 2.81231716 617.36886762 4.00910651 596.375 6.1875 Z " fill="#FFFFFF" transform="translate(0,0)"/>
<path d="M0 0 C4.32045365 3.3644912 7.37846817 6.56360666 10.5 11.125 C11.36169202 12.36568861 12.22507189 13.6052061 13.08984375 14.84375 C13.55245605 15.50890625 14.01506836 16.1740625 14.49169922 16.859375 C17.28684592 20.82632973 20.1779724 24.72281292 23.0625 28.625 C23.66916504 29.44645508 24.27583008 30.26791016 24.90087891 31.11425781 C30.80552847 39.10148674 36.74201865 47.061343 42.7890625 54.94140625 C43.47419922 55.83786865 44.15933594 56.73433105 44.86523438 57.65795898 C46.28598533 59.50782742 47.71698445 61.34987082 49.15820312 63.18383789 C52.18322894 67.07240305 55.04572662 70.75510452 57.1171875 75.2421875 C59.10597329 79.28163242 60.2454816 81.46417671 64 84 C69.48713586 84.69162299 74.96620095 84.24285829 80.46972656 83.91381836 C90.20601804 83.49252317 90.20601804 83.49252317 93.63671875 86.046875 C96.14460067 88.89727769 98.0784479 91.73043096 100 95 C101.24649189 96.5819866 102.51719803 98.14522362 103.8125 99.6875 C104.44800781 100.49574219 105.08351563 101.30398438 105.73828125 102.13671875 C108.62233111 105.78785613 111.56088026 109.39314573 114.5 113 C118.1135131 117.43539807 121.70719884 121.88272813 125.25 126.375 C128.59926145 130.5826856 132.17482972 134.54636934 135.796875 138.51953125 C137.86881289 140.8522982 139.82113954 143.23590214 141.75 145.6875 C147.24745219 152.67105207 153.15022562 159.31199575 159 166 C163.05268118 164.09201787 166.30585603 161.45157333 169.75 158.625 C175.35945793 154.09908435 180.98223102 149.59228388 186.6875 145.1875 C187.35813477 144.65398926 188.02876953 144.12047852 188.71972656 143.57080078 C193.43217567 139.96864597 193.43217567 139.96864597 195.92773438 140.10644531 C198.7307903 141.31511457 200.37516435 143.02109312 202.51953125 145.19140625 C203.37740234 146.05443359 204.23527344 146.91746094 205.11914062 147.80664062 C206.45235352 149.17079102 206.45235352 149.17079102 207.8125 150.5625 C209.12831055 151.88604492 209.12831055 151.88604492 210.47070312 153.23632812 C214.90913555 157.72787567 219.18287099 162.29930889 223.29956055 167.08569336 C226.37398426 170.54679261 229.69633713 173.75962569 233 177 C236.95867373 180.88283707 240.85058338 184.76340662 244.46875 188.96875 C248.26142048 193.37203182 252.35573206 197.42986924 256.5 201.5 C257.95045284 202.92450556 259.39839265 204.35157464 260.84375 205.78125 C261.79024414 206.7103418 261.79024414 206.7103418 262.75585938 207.65820312 C264.65555046 209.64056136 266.44888215 211.66145989 268.24023438 213.74023438 C272.07505045 218.15064314 276.15781688 222.26758656 280.3125 226.375 C281.08505127 227.14376465 281.85760254 227.9125293 282.65356445 228.70458984 C285.09994182 231.13885765 287.5495414 233.56984106 290 236 C293.23213688 239.20536178 296.46082535 242.41414073 299.6875 245.625 C300.41686768 246.34606934 301.14623535 247.06713867 301.89770508 247.81005859 C305.91582384 251.80915173 309.75142996 255.89978029 313.4336853 260.21102905 C316.0175999 263.16225472 318.81939126 265.88651108 321.625 268.625 C323.26314374 270.22450827 324.89173932 271.82875966 326.4934082 273.46484375 C327.87206011 274.86963442 329.28787734 276.2377003 330.70703125 277.6015625 C334.39227615 282.16134779 334.9812378 288.1447398 336.0625 293.75 C336.31362549 294.99354248 336.56475098 296.23708496 336.82348633 297.51831055 C341.3132737 320.20589765 344.12047945 342.95679547 346 366 C346.10586426 367.29180176 346.21172852 368.58360352 346.32080078 369.91455078 C352.95040522 453.8720295 341.13160191 539.59971443 285 676 C284.66564941 676.65468262 284.33129883 677.30936523 283.98681641 677.98388672 C275.85563658 693.87226607 266.9803542 709.48299124 256.890625 724.21484375 C255.09383709 726.86176479 253.36745538 729.54157453 251.65454102 732.24291992 C247.34995164 739.02704016 242.79155614 745.54768891 238 752 C236.91167788 753.49400368 235.82453924 754.98886986 234.73828125 756.484375 C228.661973 764.82619977 222.52269538 773.02009493 215.79296875 780.84765625 C213.97026557 782.86874758 213.97026557 782.86874758 213 785 C212.34 785 211.68 785 211 785 C210.78601562 785.52078125 210.57203125 786.0415625 210.3515625 786.578125 C208.44023419 790.00304856 205.94216092 792.79817919 203.375 795.75 C202.83593018 796.37471191 202.29686035 796.99942383 201.74145508 797.64306641 C198.28233691 801.61891003 194.71300345 805.42214532 190.91772461 809.08129883 C189.12255147 810.87738613 187.47278531 812.72669842 185.828125 814.66015625 C181.77067012 819.33045308 177.44669965 823.70049882 173.0625 828.0625 C171.92264648 829.2081543 171.92264648 829.2081543 170.75976562 830.37695312 C166.56909226 834.56046906 162.29364052 838.57951641 157.80639648 842.44311523 C155.32645453 844.58051081 152.91446922 846.78916072 150.5 849 C135.4192894 862.73421858 119.63840468 875.25670501 102.79199219 886.77148438 C100.8593958 888.09639242 98.93322616 889.43030214 97.0078125 890.765625 C89.43831739 896.00915215 81.84637551 901.17600502 74 906 C73.34177246 906.40766602 72.68354492 906.81533203 72.00537109 907.23535156 C41.77342535 925.90429532 9.79978062 942.18553203 -23.25610352 955.26245117 C-25.17414177 956.03018921 -25.17414177 956.03018921 -27.515625 957.46484375 C-31.62153359 958.34929261 -34.53244709 956.00241762 -37.9375 953.9375 C-39.1128833 953.25228271 -39.1128833 953.25228271 -40.31201172 952.55322266 C-42.00509748 951.56301496 -43.69342715 950.56463991 -45.37744141 949.55908203 C-47.98064032 948.01150911 -50.60192339 946.5001434 -53.23046875 944.99609375 C-71.50996774 934.46632852 -89.1419692 922.81796327 -106.15673828 910.34716797 C-108.33594917 908.75446788 -110.52580217 907.1768156 -112.71484375 905.59765625 C-120.35466316 900.05921504 -127.85416934 894.55766183 -134.73828125 888.08203125 C-137.29931604 885.72446382 -139.97349362 883.55426288 -142.6875 881.375 C-147.0824411 877.81689535 -151.09147331 874.07683645 -155 870 C-155.76699219 869.23429687 -156.53398438 868.46859375 -157.32421875 867.6796875 C-172.78643021 852.19490346 -185.9632376 835.51353376 -196 816 C-196.71542969 814.68128906 -196.71542969 814.68128906 -197.4453125 813.3359375 C-208.18950378 792.05027554 -211.35210203 766.39662017 -204.24560547 743.57763672 C-194.820516 715.42243315 -173.35681961 692.42669229 -149 676 C-148.22011719 675.47019531 -147.44023438 674.94039062 -146.63671875 674.39453125 C-145.1459999 673.39299475 -143.64998572 672.39928887 -142.1484375 671.4140625 C-140.76924915 670.5063058 -139.39854379 669.5854505 -138.0390625 668.6484375 C-99.79852192 642.42216637 -54.64602248 623.98745518 -11.21801758 608.27685547 C-6.18558384 606.45542522 -1.25260471 604.46881206 3.671875 602.37109375 C8.12435563 600.53679715 12.62219959 598.83135835 17.125 597.125 C18.02710205 596.78307617 18.9292041 596.44115234 19.85864258 596.08886719 C20.76251709 595.74629883 21.6663916 595.40373047 22.59765625 595.05078125 C33.51480076 590.91275272 44.40301708 586.7213197 55.15625 582.171875 C58.18594171 580.92337567 61.24314418 579.77228349 64.3125 578.625 C69.68251574 576.57776122 74.88545053 574.25996567 80.07055664 571.79077148 C84.18194107 569.83542687 88.32304478 567.97501765 92.50048828 566.1652832 C120.96570975 553.79245794 158.39613374 536.37728704 171 506 C174.8472212 495.07950232 172.73671673 486.15976918 168.04296875 475.91015625 C160.58266571 462.69396397 149.04612087 454.41658373 136.10888672 447.19189453 C134.29921618 446.16911014 132.52271225 445.08802814 130.75390625 443.99609375 C87.65374395 417.69675905 35.16818874 405.61146616 -13.34765625 393.3828125 C-31.09851426 388.88970329 -48.61463037 384.08210573 -65.9375 378.125 C-66.72832977 377.85400482 -67.51915955 377.58300964 -68.33395386 377.30380249 C-98.12804146 367.03336543 -98.12804146 367.03336543 -108 356 C-108.598125 355.4225 -109.19625 354.845 -109.8125 354.25 C-111.82594806 350.43504577 -112.12048846 347.17577384 -111 343 C-104.24004741 332.87529624 -94.23360683 326.7259294 -83.4375 321.6875 C-82.42647217 321.2123999 -81.41544434 320.7372998 -80.3737793 320.24780273 C-48.8647733 305.6433259 -15.27185223 295.72885157 18 286 C20.64838147 285.21911791 23.29626967 284.43658449 25.9440918 283.65380859 C28.96141495 282.76470283 31.98065725 281.88221994 35 281 C-99.67442783 292.85353993 -99.67442783 292.85353993 -215 349 C-217.77977749 352.82125746 -219.3521207 356.21658716 -219.0625 361 C-217.34268654 369.70123444 -210.68798193 376.54569753 -203.7734375 381.640625 C-200.90537571 383.54082693 -197.98121934 385.28206802 -195 387 C-194.37174316 387.36464355 -193.74348633 387.72928711 -193.09619141 388.10498047 C-174.23168724 398.91750721 -153.70031049 405.9731298 -133.30853271 413.30026245 C-132.25862152 413.67757004 -132.25862152 413.67757004 -131.1875 414.0625 C-130.48981506 414.31315216 -129.79213013 414.56380432 -129.07330322 414.822052 C-70.2551537 436.0038678 -70.2551537 436.0038678 -59.8046875 456.32421875 C-57.98631104 461.14864998 -57.5952862 464.94303032 -59 470 C-64.48773771 482.01089763 -74.55276523 487.37777677 -85.875 493.125 C-86.48569336 493.43735596 -87.09638672 493.74971191 -87.72558594 494.0715332 C-93.97105883 497.1628327 -100.47434776 499.57171555 -107 502 C-107.92361328 502.34579102 -108.84722656 502.69158203 -109.79882812 503.04785156 C-132.10865961 511.23784417 -155.21152234 516.55132611 -178.28155518 522.10388184 C-182.27432462 523.06611024 -186.26590348 524.03317335 -190.25732422 525.00097656 C-198.18703232 526.9229362 -206.11958743 528.83289329 -214.05354309 530.73723602 C-216.18217897 531.24872142 -218.31042489 531.76180302 -220.43859863 532.27520752 C-224.43004379 533.23745745 -228.42382894 534.18962187 -232.41796875 535.140625 C-233.61787949 535.43063385 -234.81779022 535.7206427 -236.05406189 536.0194397 C-237.16181473 536.28147186 -238.26956757 536.54350403 -239.41088867 536.81347656 C-240.37419601 537.04375549 -241.33750336 537.27403442 -242.33000183 537.5112915 C-244.95250439 537.99130654 -247.34089972 538.09168856 -250 538 C-250.40202637 537.04448242 -250.80405273 536.08896484 -251.21826172 535.10449219 C-260.22294696 513.73796071 -269.34739453 492.66871941 -280.88378906 472.51977539 C-283.09548701 468.65325697 -285.16509387 464.75277125 -287.125 460.75 C-289.61516744 455.66648138 -292.39372106 450.80891459 -295.2734375 445.9375 C-296.92772909 443.12295865 -298.54298351 440.29324259 -300.125 437.4375 C-300.56070313 436.65246094 -300.99640625 435.86742187 -301.4453125 435.05859375 C-301.95835937 434.04925781 -302.47140625 433.03992188 -303 432 C-303.39227783 431.24509277 -303.78455566 430.49018555 -304.1887207 429.71240234 C-307.85875848 422.24074 -309.49145288 414.91164149 -310.9375 406.75 C-311.44194645 404.06838644 -311.96029248 401.38953937 -312.48046875 398.7109375 C-312.60837799 398.04836945 -312.73628723 397.38580139 -312.86807251 396.70315552 C-317.61269297 372.32669068 -325.04569157 347.5905238 -337.04101562 325.75927734 C-338.03082862 323.94344424 -338.97966524 322.11047152 -339.921875 320.26953125 C-343.79203195 312.76412531 -348.02256782 305.55825234 -352.58740234 298.453125 C-359 288.44069888 -359 288.44069888 -359 283 C-352.90851053 281.28449031 -352.90851053 281.28449031 -350.62713623 280.64352417 C-346.97612807 279.61738033 -343.3267914 278.5858436 -339.68017578 277.54418945 C-327.17628181 273.98379806 -327.17628181 273.98379806 -321.359375 272.7109375 C-309.96684441 270.1702771 -303.17688852 265.22315825 -295 257 C-293.9849739 256.02016233 -292.96811083 255.04222322 -291.94921875 254.06640625 C-287.43897637 249.94571286 -287.43897637 249.94571286 -284 245 C-283.34 245 -282.68 245 -282 245 C-282 244.34 -282 243.68 -282 243 C-280.63671875 241.66015625 -280.63671875 241.66015625 -278.6875 240.0625 C-274.16813615 236.23103932 -270.04374091 232.08093948 -265.90625 227.84375 C-263.77194512 225.70340748 -261.54330435 223.71862916 -259.25 221.75 C-254.42433933 217.5714062 -249.97546745 213.04730481 -245.5 208.5 C-240.42028497 203.33874862 -235.31814336 198.31740671 -229.82226562 193.59960938 C-227.08201362 191.19417915 -224.54391189 188.60959468 -222 186 C-218.15149764 182.09850621 -214.2355232 178.39153636 -210.05859375 174.83984375 C-206.51414778 171.6720372 -203.22605242 168.24354766 -199.90625 164.84375 C-197.76178716 162.6932122 -195.52186789 160.69806319 -193.21875 158.71875 C-188.58146436 154.70327225 -184.29866511 150.37202116 -180 146 C-175.09243894 141.00869216 -170.14840971 136.17188017 -164.83935547 131.60791016 C-162.13119967 129.24052044 -159.6026816 126.73480694 -157.0625 124.1875 C-156.58232422 123.71119141 -156.10214844 123.23488281 -155.60742188 122.74414062 C-152.97189805 120.12210532 -152.97189805 120.12210532 -151 117 C-148.04165443 118.38808612 -145.47974762 120.00057134 -142.84765625 121.93359375 C-142.07099609 122.50013672 -141.29433594 123.06667969 -140.49414062 123.65039062 C-139.69169922 124.24013672 -138.88925781 124.82988281 -138.0625 125.4375 C-131.2201588 130.50235305 -131.2201588 130.50235305 -124 135 C-115.00970206 125.41214218 -106.02439666 115.828869 -97.4375 105.875 C-95.05683254 103.13695751 -92.58282226 100.54812024 -90 98 C-86.82730266 94.86976706 -83.87238093 91.62564407 -80.96484375 88.25 C-78.60201019 85.54425024 -76.18097086 82.89433299 -73.75 80.25 C-73.28247314 79.74130371 -72.81494629 79.23260742 -72.33325195 78.70849609 C-71.37184553 77.66316905 -70.4101729 76.61808679 -69.44824219 75.57324219 C-67.0880829 73.00937393 -64.73097617 70.44271214 -62.375 67.875 C-61.68168579 67.11981079 -61.68168579 67.11981079 -60.97436523 66.34936523 C-58.23098344 63.35689469 -55.51434169 60.34245908 -52.8125 57.3125 C-47.35933798 51.23611946 -41.73594603 45.32038347 -36.1328125 39.3828125 C-17.76900741 19.96158854 -17.76900741 19.96158854 0 0 Z " fill="#000000" transform="translate(897,245)"/>
<path d="M0 0 C0.88112457 0.00093658 1.76224915 0.00187317 2.67007446 0.00283813 C19.20301392 0.04044205 35.59058888 0.67722195 52.0625 2.1875 C52.89845703 2.26291016 53.73441406 2.33832031 54.59570312 2.41601562 C80.64757056 4.78092734 106.28926376 8.02327139 131.83636475 13.69464111 C134.11174372 14.19840239 136.38892424 14.69330337 138.66650391 15.18701172 C183.722124 25.00704484 227.0343195 39.40075595 268.88134766 58.73144531 C271.75625134 60.04732602 274.6427316 61.32711116 277.54296875 62.5859375 C289.2199938 67.66683218 300.34991207 73.50929138 311.45654297 79.73388672 C313.89032899 81.09146232 316.33444306 82.42719268 318.78515625 83.75390625 C329.85195838 89.76602089 340.51304111 96.31133839 351.0625 103.1875 C352.00963867 103.80431641 352.95677734 104.42113281 353.93261719 105.05664062 C372.62196602 117.27261774 390.64775689 130.21743135 408.0625 144.1875 C408.71347656 144.70699219 409.36445312 145.22648438 410.03515625 145.76171875 C417.79355751 151.95960667 425.39369596 158.24159492 432.68359375 164.98828125 C434.80158291 166.94629094 436.94777144 168.85845153 439.125 170.75 C447.89897037 178.39580417 456.32900184 186.29295019 464.54077148 194.53540039 C466.25457233 196.2545867 467.97369082 197.96832583 469.69335938 199.68164062 C474.8243266 204.8095053 479.8774985 209.94542683 484.58813477 215.46801758 C486.95217068 218.22508083 489.45336836 220.85159716 491.9375 223.5 C496.41992274 228.31851711 500.6768573 233.25932933 504.796875 238.39453125 C506.82126394 240.89011417 508.89487286 243.33433473 510.99316406 245.76782227 C527.89822433 265.42966179 542.53535214 287.10303233 556.0625 309.1875 C556.64644531 310.13753906 557.23039062 311.08757812 557.83203125 312.06640625 C567.09057508 327.17245145 575.85476948 342.48553465 584.0625 358.1875 C584.58521484 359.18233398 585.10792969 360.17716797 585.64648438 361.20214844 C621.03768101 428.95909501 642.56344131 502.51725391 652.0625 578.1875 C652.15247253 578.89769287 652.24244507 579.60788574 652.33514404 580.33959961 C653.60031405 590.39618114 654.60048156 600.44008847 655.1875 610.5625 C655.22952545 611.27351868 655.2715509 611.98453735 655.31484985 612.71710205 C656.14733414 627.32643577 656.25080052 641.93253968 656.25 656.5625 C656.25090637 657.63216003 656.25181274 658.70182007 656.25274658 659.80389404 C656.25077547 680.33064534 655.44967635 700.7009241 653.375 721.125 C653.28946869 721.97100769 653.20393738 722.81701538 653.11581421 723.68865967 C649.90131348 755.06308991 644.36521101 785.59400296 636.57946777 816.14953613 C636.10277898 818.02871427 635.6354286 819.91025469 635.16894531 821.79199219 C628.09999611 850.27892847 618.4542382 878.15358861 607.0625 905.1875 C606.31756935 906.98301526 605.57277528 908.77858719 604.828125 910.57421875 C600.90611369 919.94886701 596.72777089 929.19264508 592.375 938.375 C591.93551025 939.30715332 591.49602051 940.23930664 591.04321289 941.19970703 C588.4879272 946.52254162 585.67369392 951.56088909 582.58398438 956.58959961 C580.95717417 959.3673415 579.52328376 962.19622636 578.10546875 965.0859375 C575.12195405 971.15768565 571.81212647 976.98793151 568.375 982.8125 C567.76342041 983.85301514 567.15184082 984.89353027 566.52172852 985.96557617 C564.70812815 989.04323685 562.88693334 992.11625117 561.0625 995.1875 C560.31661621 996.44699463 560.31661621 996.44699463 559.55566406 997.73193359 C548.33742841 1016.6139955 535.80645399 1034.63711895 522.2980957 1051.95068359 C519.96809907 1054.93097847 519.96809907 1054.93097847 518.0625 1058.1875 C517.4025 1058.1875 516.7425 1058.1875 516.0625 1058.1875 C515.82144531 1058.91195313 515.58039063 1059.63640625 515.33203125 1060.3828125 C513.88993262 1063.56874116 512.15441391 1065.53281411 509.75 1068.0625 C506.98004872 1071.03730298 504.40850343 1073.94877638 502.125 1077.3125 C501.444375 1078.26125 500.76375 1079.21 500.0625 1080.1875 C499.4025 1080.1875 498.7425 1080.1875 498.0625 1080.1875 C498.0625 1080.8475 498.0625 1081.5075 498.0625 1082.1875 C497.4025 1082.1875 496.7425 1082.1875 496.0625 1082.1875 C495.79566406 1082.77273438 495.52882813 1083.35796875 495.25390625 1083.9609375 C494.03718941 1086.23480176 492.72200677 1087.89915914 491 1089.8125 C490.07960938 1090.83730469 490.07960938 1090.83730469 489.140625 1091.8828125 C488.45484375 1092.64335938 487.7690625 1093.40390625 487.0625 1094.1875 C486.27359375 1095.09242187 485.4846875 1095.99734375 484.671875 1096.9296875 C483.87265625 1097.83976562 483.0734375 1098.74984375 482.25 1099.6875 C481.50105469 1100.5434375 480.75210937 1101.399375 479.98046875 1102.28125 C478.0625 1104.1875 478.0625 1104.1875 476.0625 1104.1875 C475.815 1104.80625 475.5675 1105.425 475.3125 1106.0625 C473.82509631 1108.59108627 472.62571991 1108.90589004 470.0625 1110.1875 C469.815 1110.73921875 469.5675 1111.2909375 469.3125 1111.859375 C467.47424935 1115.28311683 464.81378876 1117.72514457 462.0625 1120.4375 C461.5159375 1120.99179688 460.969375 1121.54609375 460.40625 1122.1171875 C456.3158867 1126.1875 456.3158867 1126.1875 454.0625 1126.1875 C454.0625 1126.8475 454.0625 1127.5075 454.0625 1128.1875 C452.55859375 1129.66796875 452.55859375 1129.66796875 450.5 1131.375 C447.7371132 1133.72029758 445.09570243 1136.09579405 442.5625 1138.6875 C438.92434814 1142.37583327 435.19954838 1146.05855996 431.0625 1149.1875 C430.4025 1149.1875 429.7425 1149.1875 429.0625 1149.1875 C429.0625 1149.8475 429.0625 1150.5075 429.0625 1151.1875 C427.1484375 1152.96484375 427.1484375 1152.96484375 424.4375 1155.125 C423.42558594 1155.93453125 422.41367188 1156.7440625 421.37109375 1157.578125 C420.2687042 1158.44851865 419.16583439 1159.31830437 418.0625 1160.1875 C416.99087925 1161.03645055 415.91926468 1161.8854089 414.84765625 1162.734375 C411.91131022 1165.05494446 408.96160169 1167.35808893 406.01074219 1169.66015625 C403.99162472 1171.24306338 401.98365594 1172.83938136 399.9765625 1174.4375 C382.77953857 1188.06470218 364.73559866 1200.43789654 346.0625 1211.95019531 C344.32561091 1213.02472582 342.59931168 1214.11633768 340.875 1215.2109375 C329.55414084 1222.34669181 317.78537892 1228.74302486 306.0625 1235.1875 C305.20285645 1235.66010254 304.34321289 1236.13270508 303.45751953 1236.61962891 C290.29730245 1243.80843444 276.77501407 1250.12744662 263.0625 1256.1875 C262.02174316 1256.64801758 260.98098633 1257.10853516 259.90869141 1257.58300781 C243.22962764 1264.91429504 226.30852793 1271.32133988 209.0625 1277.1875 C207.95777344 1277.56616211 206.85304688 1277.94482422 205.71484375 1278.33496094 C175.1626162 1288.7324575 143.88673955 1296.81907112 112.0625 1302.1875 C111.39903564 1302.29944702 110.73557129 1302.41139404 110.05200195 1302.5267334 C89.81143742 1305.92350634 69.52756923 1308.56744795 49.0625 1310.1875 C47.87889893 1310.28321289 46.69529785 1310.37892578 45.47583008 1310.47753906 C30.92101869 1311.49598345 16.33381815 1311.43327364 1.75 1311.4375 C0.70020588 1311.43816278 0.70020588 1311.43816278 -0.3707962 1311.43883896 C-21.94369479 1311.44596615 -43.29082296 1310.96232035 -64.73394775 1308.44073486 C-67.09653935 1308.16922301 -69.46061368 1307.91645649 -71.82568359 1307.66748047 C-136.21506668 1300.87332035 -200.76428226 1284.77963366 -259.9375 1258.1875 C-261.55301758 1257.46216064 -261.55301758 1257.46216064 -263.20117188 1256.72216797 C-275.5594835 1251.14322242 -287.86193652 1245.44132209 -299.91455078 1239.22558594 C-302.13290724 1238.08722585 -304.36142233 1236.97008219 -306.58984375 1235.8515625 C-332.74754414 1222.58153831 -357.51138845 1206.59616176 -381.24755859 1189.40527344 C-382.97728767 1188.15882896 -384.7156278 1186.92538574 -386.45703125 1185.6953125 C-408.64192865 1170.01040982 -430.48854421 1152.87870845 -449.58984375 1133.49609375 C-451.90936902 1131.07056058 -451.90936902 1131.07056058 -454.9375 1129.1875 C-454.9375 1128.5275 -454.9375 1127.8675 -454.9375 1127.1875 C-455.50879639 1126.9414502 -456.08009277 1126.69540039 -456.66870117 1126.44189453 C-459.31742243 1124.97744496 -461.10435594 1123.2631157 -463.23828125 1121.1171875 C-464.05103516 1120.3025 -464.86378906 1119.4878125 -465.70117188 1118.6484375 C-466.54228516 1117.79507812 -467.38339844 1116.94171875 -468.25 1116.0625 C-469.07951172 1115.23234375 -469.90902344 1114.4021875 -470.76367188 1113.546875 C-475.10840761 1109.1712769 -479.30119728 1104.72037722 -483.32202148 1100.04589844 C-485.90236178 1097.07755171 -488.61417019 1094.23565089 -491.3125 1091.375 C-496.00354333 1086.36110765 -500.48016431 1081.24159476 -504.7734375 1075.87890625 C-507.05253649 1073.04443115 -509.39784317 1070.27405163 -511.75 1067.5 C-517.24796568 1060.91265413 -522.37637977 1054.07186628 -527.47021484 1047.16943359 C-528.83136053 1045.33086776 -530.20443846 1043.50203721 -531.58203125 1041.67578125 C-551.18639772 1015.53908496 -568.36465994 987.41011414 -583.67236328 958.56640625 C-584.87303309 956.30872067 -586.08777592 954.05934075 -587.30859375 951.8125 C-590.79542371 945.36677289 -594.0099013 938.90330229 -596.9375 932.1875 C-597.74484621 930.35270242 -598.55221861 928.51791632 -599.35998535 926.68330383 C-600.57620093 923.91864864 -601.78871321 921.15237638 -603.00097656 918.38598633 C-603.62466717 916.96349697 -604.24901488 915.54129554 -604.87402344 914.11938477 C-611.15726274 899.82386156 -611.15726274 899.82386156 -613.91455078 892.78710938 C-614.70585017 890.77618911 -615.51502966 888.77229947 -616.33154297 886.77148438 C-619.89559893 878.0341276 -623.14499263 869.22767564 -626.0625 860.25 C-626.40467056 859.19875946 -626.40467056 859.19875946 -626.75375366 858.12628174 C-640.91147297 814.25282979 -649.87249087 768.95857211 -654.9375 723.1875 C-655.02213501 722.42516052 -655.10677002 721.66282104 -655.19396973 720.87738037 C-659.99014493 676.96586278 -659.68560072 632.08883522 -654.9375 588.1875 C-654.85264343 587.39935913 -654.76778687 586.61121826 -654.68035889 585.79919434 C-650.85223827 550.71060695 -644.13756645 516.25395429 -634.9375 482.1875 C-634.63263672 481.05650879 -634.32777344 479.92551758 -634.01367188 478.76025391 C-626.36648473 450.82654926 -616.41721355 423.38299555 -604.27587891 397.09228516 C-602.90895371 394.12554382 -601.5674199 391.14832584 -600.23046875 388.16796875 C-591.47617092 368.73226723 -582.33177712 349.50572608 -571.21484375 331.29785156 C-569.88095788 329.09408446 -568.57869431 326.87383654 -567.28125 324.6484375 C-549.53467188 294.36119208 -529.22069997 265.48842602 -506.35986328 238.84814453 C-504.88933 237.13126033 -503.42653077 235.40801318 -501.96484375 233.68359375 C-495.93372846 226.58340158 -489.78565164 219.62266814 -483.43847656 212.80175781 C-481.79618757 211.03552248 -480.15987112 209.26384846 -478.5234375 207.4921875 C-469.69761904 197.95948188 -460.84440061 188.55391169 -451.02539062 180.03027344 C-447.64276673 177.04476769 -444.39303897 173.92215454 -441.125 170.8125 C-435.78866941 165.77307803 -430.38066802 160.93173925 -424.63671875 156.35546875 C-422.12003025 154.33410534 -419.66158502 152.26164886 -417.2109375 150.16162109 C-410.30919657 144.25139212 -403.22714195 138.61253241 -395.9375 133.1875 C-395.29780273 132.71119141 -394.65810547 132.23488281 -393.99902344 131.74414062 C-315.67315216 73.72219669 -226.98025828 33.37576345 -65.5625 3.375 C-64.0358371 3.21674744 -64.0358371 3.21674744 -62.47833252 3.05529785 C-41.67024913 0.92802654 -20.91353816 -0.02947875 0 0 Z M-117.68762207 51.75976562 C-119.77355204 52.15633112 -121.86055042 52.54642705 -123.94824219 52.93359375 C-208.52546469 68.73741363 -289.25346558 106.29418574 -358.9375 156.1875 C-359.78715332 156.79480957 -360.63680664 157.40211914 -361.51220703 158.02783203 C-373.03833131 166.30143446 -384.10422557 175.02853219 -394.9375 184.1875 C-395.55995605 184.71085938 -396.18241211 185.23421875 -396.82373047 185.7734375 C-407.66117433 194.89483217 -418.21008096 204.31026881 -428.13671875 214.421875 C-429.88009101 216.13121179 -431.68783791 217.68712382 -433.5625 219.25 C-438.33066731 223.3383494 -442.50859693 227.97405976 -446.75048828 232.59399414 C-450.19418639 236.34281152 -453.70197307 239.99742426 -457.33276367 243.56591797 C-460.36437764 246.62935628 -463.14113318 249.91050763 -465.9375 253.1875 C-466.7625 254.1465625 -467.5875 255.105625 -468.4375 256.09375 C-474.6975547 263.40336088 -480.72183439 270.87353806 -486.61425781 278.48193359 C-487.88024525 280.11370264 -489.15400464 281.7390871 -490.4296875 283.36328125 C-502.13363677 298.37649414 -512.76389519 314.10492357 -522.9375 330.1875 C-523.49695313 331.07147461 -524.05640625 331.95544922 -524.6328125 332.86621094 C-570.54395186 405.84710313 -600.13346088 487.70863388 -612.9375 580.1875 C-613.05818848 581.05713379 -613.17887695 581.92676758 -613.30322266 582.82275391 C-614.00477349 587.93468419 -614.51631386 593.04531559 -614.9375 598.1875 C-615.02628418 599.21327148 -615.11506836 600.23904297 -615.20654297 601.29589844 C-618.45714567 640.33602058 -618.42221515 679.98831324 -614.18103027 718.94158936 C-613.9357071 721.2040347 -613.7002884 723.46736354 -613.46582031 725.73095703 C-607.96333774 777.94479627 -595.28522589 830.42292535 -574.8984375 878.87939453 C-573.64100427 881.89966225 -572.41596708 884.93268151 -571.1875 887.96484375 C-565.90951956 900.95314545 -560.55588829 913.81278239 -553.9375 926.1875 C-553.27598152 927.42965547 -552.61452437 928.6718436 -551.953125 929.9140625 C-550.95103141 931.79307912 -549.94660929 933.67064039 -548.93432617 935.54418945 C-546.86028159 939.39526369 -544.89782134 943.28581837 -542.98754883 947.22045898 C-539.4313558 954.52889721 -535.44072491 961.32151842 -530.953125 968.09375 C-529.34050879 970.56892837 -527.88089011 973.01881303 -526.5 975.625 C-522.79794524 982.4452284 -518.31077979 988.7873501 -513.9375 995.1875 C-513.34469238 996.05810059 -512.75188477 996.92870117 -512.14111328 997.82568359 C-503.6118649 1010.32323587 -494.83296327 1022.53521773 -485.39306641 1034.36181641 C-484.12150323 1035.95670896 -482.86240945 1037.56152696 -481.60546875 1039.16796875 C-477.62302965 1044.23438536 -473.42997333 1049.0572985 -469.08984375 1053.8203125 C-467.17932053 1055.9215413 -465.30081552 1058.04447199 -463.4375 1060.1875 C-452.16978578 1073.09788782 -440.53137197 1085.67235582 -428.4375 1097.8125 C-427.45027954 1098.80660889 -427.45027954 1098.80660889 -426.44311523 1099.82080078 C-420.4716904 1106.66223493 -420.4716904 1106.66223493 -412.9375 1110.1875 C-412.9375 1110.8475 -412.9375 1111.5075 -412.9375 1112.1875 C-411.594946 1113.62450222 -411.594946 1113.62450222 -409.75 1115.125 C-409.01394531 1115.75019531 -408.27789062 1116.37539062 -407.51953125 1117.01953125 C-406.66746094 1117.73496094 -405.81539062 1118.45039062 -404.9375 1119.1875 C-403.99261719 1119.99574219 -403.04773438 1120.80398438 -402.07421875 1121.63671875 C-398.71385669 1124.50924323 -395.32932396 1127.352232 -391.9375 1130.1875 C-391.31810547 1130.70650879 -390.69871094 1131.22551758 -390.06054688 1131.76025391 C-381.40595337 1138.98635525 -372.54246099 1145.74249298 -363.2734375 1152.16015625 C-360.34882214 1154.18707168 -357.46312695 1156.25610825 -354.6015625 1158.37109375 C-344.16156652 1166.08070065 -333.41017815 1173.0617821 -322.29589844 1179.76074219 C-320.27325448 1180.98437896 -318.26272183 1182.22419617 -316.2578125 1183.4765625 C-237.88045602 1231.80624883 -145.37147387 1260.86788257 -33.9375 1270.1875 C-32.91269531 1270.26097656 -31.88789062 1270.33445312 -30.83203125 1270.41015625 C-25.20218829 1270.79643745 -19.5789643 1271.0549935 -13.9375 1271.1875 C-13.00470215 1271.20941406 -12.0719043 1271.23132812 -11.11083984 1271.25390625 C21.06913661 1271.87484164 53.20731003 1269.67936513 85.0625 1265.1875 C86.29774414 1265.01379883 87.53298828 1264.84009766 88.80566406 1264.66113281 C122.54453319 1259.76370105 155.68207386 1251.79473391 188.0625 1241.1875 C189.21878906 1240.81125488 190.37507812 1240.43500977 191.56640625 1240.04736328 C208.38128858 1234.53089334 224.77210805 1228.08996565 241.0625 1221.1875 C242.15546387 1220.72553223 243.24842773 1220.26356445 244.37451172 1219.78759766 C258.29909595 1213.86970121 271.80264742 1207.46892194 285.0625 1200.1875 C286.81748446 1199.23396285 288.5726997 1198.28085034 290.328125 1197.328125 C298.67800061 1192.78130713 306.96662682 1188.17513616 315.0625 1183.1875 C316.311901 1182.43910327 317.56196723 1181.69181656 318.8125 1180.9453125 C341.83352763 1167.13639238 363.84470986 1152.11955016 384.20703125 1134.609375 C386.67417347 1132.5168604 389.1763442 1130.52081401 391.75 1128.5625 C395.82244078 1125.44697154 399.58426024 1122.05395809 403.36108398 1118.58911133 C405.76886798 1116.44854458 408.2316703 1114.47282503 410.7734375 1112.49609375 C418.50972531 1106.19485681 425.44120188 1099.07118782 432.46142578 1091.99438477 C434.81617514 1089.62129624 437.17891141 1087.25639069 439.54296875 1084.89257812 C441.06557761 1083.36505511 442.58772896 1081.83707588 444.109375 1080.30859375 C444.80432068 1079.61253525 445.49926636 1078.91647675 446.215271 1078.19932556 C450.13885376 1074.23808349 453.89167737 1070.18072375 457.5178833 1065.94496155 C459.0625 1064.1875 459.0625 1064.1875 460.76190186 1062.58250427 C462.28980807 1061.26156695 462.28980807 1061.26156695 462.0625 1059.1875 C462.7225 1059.1875 463.3825 1059.1875 464.0625 1059.1875 C465.46707981 1057.64370086 465.46707981 1057.64370086 466.9375 1055.5625 C470.05315872 1051.4276403 473.34565641 1047.51959098 476.75 1043.625 C482.6926533 1036.76716133 488.16500009 1029.61978137 493.51953125 1022.296875 C495.08924795 1020.15093319 496.66954272 1018.01303953 498.25 1015.875 C534.93420804 965.96368529 566.05054387 908.42207994 584.19726562 848.98535156 C585.0749485 846.14724609 585.98316808 843.31969603 586.89483643 840.49235535 C593.71733839 819.27297256 599.17021788 797.98932067 603.65362549 776.16143799 C604.2720828 773.17568966 604.91684526 770.1956593 605.55859375 767.21484375 C608.51580202 753.27873385 610.68085053 739.36599067 612.0625 725.1875 C612.12930969 724.51837585 612.19611938 723.84925171 612.26495361 723.15985107 C618.44371507 660.90816263 615.92125094 598.5192659 604.125 537.125 C603.96182281 536.27121765 603.79864563 535.4174353 603.63052368 534.53778076 C600.48437003 518.19372066 596.45460573 502.14279841 591.5 486.25 C591.16830811 485.18555664 590.83661621 484.12111328 590.49487305 483.02441406 C589.56394329 480.05940174 588.62581044 477.09681766 587.68225098 474.13580322 C587.03087352 472.08807625 586.38404899 470.03894071 585.73730469 467.98974609 C579.23549245 447.45423139 571.91194028 427.62102624 562.91400146 408.04553223 C562.04288756 406.14470437 561.17983614 404.24039481 560.31884766 402.33496094 C545.22995288 368.97262251 527.53205658 336.11920973 505.875 306.5 C505.31748047 305.73381348 504.75996094 304.96762695 504.18554688 304.17822266 C502.48298726 301.84417695 500.774036 299.51496934 499.0625 297.1875 C498.54993652 296.48898926 498.03737305 295.79047852 497.50927734 295.07080078 C483.33780371 275.80739238 468.0684448 257.41529616 451.72216797 239.96044922 C449.89585646 238.00948214 448.07487378 236.05361161 446.25390625 234.09765625 C434.11796005 221.06322562 434.11796005 221.06322562 421.0625 208.96875 C418.97912922 207.1132479 417.01968793 205.17526899 415.0625 203.1875 C411.22680314 199.30737422 407.20866771 195.73071195 403.0625 192.1875 C401.97360586 191.24650146 400.88509568 190.30505852 399.796875 189.36328125 C398.593946 188.32529364 397.39081965 187.28753471 396.1875 186.25 C395.63497559 185.77208008 395.08245117 185.29416016 394.51318359 184.80175781 C378.84288763 171.34166512 362.31961431 158.62980943 344.9609375 147.42675781 C342.90617643 146.08545545 340.87389746 144.71419431 338.84375 143.3359375 C316.01216826 127.8568563 291.99902873 114.25303214 267.17724609 102.22265625 C264.8537523 101.08531918 262.54673048 99.91755389 260.23828125 98.75 C216.43224052 76.88739857 168.03153339 61.66118747 120.0625 52.1875 C118.3926001 51.85758057 118.3926001 51.85758057 116.68896484 51.52099609 C90.05150086 46.34834138 63.14722557 42.85194981 36.0625 41.1875 C34.65774414 41.10072998 34.65774414 41.10072998 33.22460938 41.01220703 C-17.66780065 38.02427285 -67.70703133 42.21456522 -117.68762207 51.75976562 Z " fill="#000000" transform="translate(661.9375,2.8125)"/>
<path d="M0 0 C0.93473145 0.47010498 1.86946289 0.94020996 2.83251953 1.42456055 C3.65872803 1.84946777 4.48493652 2.274375 5.33618164 2.7121582 C11.85171151 5.4606561 17.64205075 6.15731314 24.60595703 5.94018555 C26.21597439 5.9148873 27.8260009 5.8901658 29.43603516 5.8659668 C31.93072277 5.81653797 34.42491073 5.76063955 36.91918945 5.69360352 C50.18241969 5.36061345 60.38856083 6.30220609 71.11767578 14.88549805 C68.95283818 17.27640509 67.00217662 18.57799105 64.05517578 19.8659668 C62.86782837 20.39867187 62.86782837 20.39867187 61.65649414 20.94213867 C60.81868408 21.31532227 59.98087402 21.68850586 59.11767578 22.07299805 C51.43395827 25.61211241 44.63749824 29.43121292 38.11767578 34.88549805 C37.25916016 35.58288086 36.40064453 36.28026367 35.51611328 36.9987793 C15.09109155 54.36930382 6.17669108 80.20915125 2.11767578 105.88549805 C-5.43613982 105.01761285 -9.1535156 101.23399627 -13.84326172 95.47924805 C-20.82422836 85.93564808 -22.37673586 77.43980575 -23.65283203 65.91186523 C-24.69343751 54.42714746 -24.69343751 54.42714746 -28.88232422 43.88549805 C-33.53885762 40.44853292 -38.29605041 40.06706611 -43.88232422 40.88549805 C-51.90465037 43.15169187 -57.00177481 49.4953949 -61.42529297 56.23706055 C-66.30041373 65.01513722 -68.09969697 75.15886539 -65.82763672 84.99487305 C-59.59861685 104.04228919 -46.901344 111.55087376 -29.94566345 120.49119568 C-27.48246245 121.7911901 -25.02200995 123.09635803 -22.56118774 124.40084839 C-20.7433533 125.35989524 -18.9200583 126.30784242 -17.09594727 127.25488281 C-9.53763792 131.24111085 -2.62313019 135.63331235 4.11767578 140.88549805 C5.04475342 141.58223633 5.97183105 142.27897461 6.92700195 142.99682617 C7.64992432 143.62008789 8.37284668 144.24334961 9.11767578 144.88549805 C9.11767578 145.54549805 9.11767578 146.20549805 9.11767578 146.88549805 C9.77767578 146.88549805 10.43767578 146.88549805 11.11767578 146.88549805 C34.72128604 170.5420312 42.75260122 212.73641239 48.68017578 244.13549805 C51.70849839 260.01714735 56.86927708 274.34934712 66.44580078 287.5534668 C70.01483732 292.61713992 73.02144806 297.859567 75.93017578 303.32299805 C76.44153076 304.27311768 76.95288574 305.2232373 77.47973633 306.20214844 C79.03239466 309.09308131 80.57551596 311.98895435 82.11767578 314.88549805 C83.03424601 316.59388312 83.95090818 318.30221888 84.86767578 320.01049805 C100.9249828 350.06594184 113.13853259 381.99826208 118.11767578 415.88549805 C118.29355225 417.07103271 118.46942871 418.25656738 118.65063477 419.47802734 C120.00790412 429.11595237 120.47930537 438.59647116 120.43017578 448.32299805 C120.42901764 449.04062317 120.4278595 449.75824829 120.42666626 450.49761963 C120.39245933 461.24158325 119.77757719 471.43060777 117.11767578 481.88549805 C116.79283203 483.41883789 116.79283203 483.41883789 116.46142578 484.9831543 C114.6080966 493.00321569 111.30690158 499.96769572 105.18017578 505.57299805 C101.14902722 507.30063315 99.27906531 507.29739807 95.11767578 505.88549805 C83.54126218 497.65787242 79.97428531 474.47981679 75.94580078 461.5847168 C65.68558045 428.84254308 50.58880321 401.75052546 28.61767578 375.51049805 C20.03488145 365.06656015 12.67095635 353.69482276 6.11767578 341.88549805 C5.78767578 342.21549805 5.45767578 342.54549805 5.11767578 342.88549805 C5.2193937 344.78057022 5.2193937 344.78057022 5.58325195 347.05273438 C5.7106929 347.94423691 5.83813385 348.83573944 5.96943665 349.7542572 C6.18783455 351.22107689 6.18783455 351.22107689 6.41064453 352.7175293 C6.55676682 353.72888443 6.7028891 354.74023956 6.85343933 355.78224182 C7.332265 359.08825523 7.8187872 362.39308966 8.30517578 365.69799805 C8.63274318 367.95328473 8.95972869 370.208656 9.28613281 372.46411133 C10.08288053 377.96286418 10.88504825 383.46080663 11.68951416 388.95843506 C12.46213761 394.24035988 13.2310355 399.52280863 13.99389648 404.80615234 C14.3136012 407.02029919 14.63610115 409.23404531 14.9621582 411.44726562 C23.05237184 467.30519483 16.66875597 525.43376946 -0.88232422 578.88549805 C8.80496703 564.66293475 16.38996506 550.1114796 22.11767578 533.88549805 C22.55595703 532.67893555 22.99423828 531.47237305 23.44580078 530.22924805 C33.14915473 502.47028611 38.72901287 473.10026526 41.1809082 443.83422852 C41.32749878 442.13290771 41.32749878 442.13290771 41.47705078 440.3972168 C41.55407227 439.40165771 41.63109375 438.40609863 41.71044922 437.38037109 C42.11767578 434.88549805 42.11767578 434.88549805 44.11767578 431.88549805 C47.530942 439.68517448 50.41395949 447.53511487 53.00439453 455.63549805 C53.94800207 458.74733321 53.94800207 458.74733321 55.26220703 460.82299805 C57.46577298 466.13570499 56.00898544 473.29192408 55.33642578 478.87768555 C55.24824585 479.6114743 55.16006592 480.34526306 55.06921387 481.10128784 C54.07781826 488.85645611 52.44883047 496.41583292 50.61767578 504.01049805 C50.44671387 504.73039917 50.27575195 505.45030029 50.09960938 506.1920166 C46.3130354 522.05415198 41.44730629 537.47963646 36.11767578 552.88549805 C35.56781006 554.48748047 35.56781006 554.48748047 35.00683594 556.12182617 C31.44834985 566.42417757 27.57737152 576.4104414 22.85595703 586.2331543 C15.45445182 601.37951309 15.45445182 601.37951309 13.11767578 617.88549805 C13.68873047 617.86229492 14.25978516 617.8390918 14.84814453 617.81518555 C32.35689265 617.42548368 48.22591789 622.18627352 61.47314453 633.8581543 C63.39033832 636.22163073 63.62260715 637.92756186 64.11767578 640.88549805 C51.9792346 644.7039026 39.7434832 648.00754931 27.41967773 651.16870117 C24.94002194 651.80978212 22.46305786 652.46137233 19.98901367 653.1237793 C7.67551343 656.41678169 -4.35878462 659.47850743 -17.16748047 659.61987305 C-18.03972763 659.63624817 -18.91197479 659.65262329 -19.81065369 659.66949463 C-26.87264647 659.50330455 -31.94787024 656.93123871 -36.83935547 651.85424805 C-38.03728677 649.59298447 -38.37867459 647.9341597 -38.56982422 645.38549805 C-38.63814453 644.5140918 -38.70646484 643.64268555 -38.77685547 642.74487305 C-38.92463484 638.73841002 -38.80848696 634.74904013 -38.62451172 630.74487305 C-38.93854102 627.26200261 -40.17481759 624.90715899 -41.88232422 621.88549805 C-60.96796586 623.63240787 -73.82263839 631.35581624 -88.67529297 643.0925293 C-101.35855591 652.99313678 -117.11775003 659.83535961 -132.88232422 662.88549805 C-133.74325684 663.05992432 -134.60418945 663.23435059 -135.49121094 663.4140625 C-143.33479973 664.88579034 -150.91597285 665.15643833 -158.88232422 665.07299805 C-160.08244141 665.07235352 -161.28255859 665.07170898 -162.51904297 665.07104492 C-172.08859695 665.02282209 -172.08859695 665.02282209 -175.88232422 663.88549805 C-175.28535742 658.34350776 -173.29503691 653.80059978 -171.06982422 648.76049805 C-154.68491813 610.57397725 -163.48328588 576.20691321 -173.25656128 537.498703 C-200.96566746 427.72657449 -200.96566746 427.72657449 -188.88232422 378.88549805 C-193.0560393 381.95374265 -196.07041183 385.31713085 -199.19482422 389.38549805 C-199.67556396 390.00787354 -200.15630371 390.63024902 -200.65161133 391.27148438 C-215.39646286 410.54225101 -226.57987837 432.94375452 -235.56982422 455.44799805 C-239.00608842 463.89346428 -242.95261882 472.88633595 -250.88232422 477.88549805 C-254.45797516 479.10645203 -257.3796055 479.3741535 -260.88232422 477.88549805 C-271.07034557 465.60835996 -267.73526903 443.36995709 -266.61425781 428.27612305 C-263.14173883 395.11282998 -251.8774285 362.5309107 -236.88232422 332.88549805 C-236.51703613 332.15379395 -236.15174805 331.42208984 -235.77539062 330.66821289 C-227.40888937 313.98827487 -217.48530158 298.34743647 -207.25732422 282.76049805 C-201.56425548 274.08388686 -196.32621019 265.20032525 -191.19970703 256.18041992 C-189.88306418 253.88678707 -188.54088272 251.61045589 -187.18701172 249.33862305 C-186.74703857 248.5995874 -186.30706543 247.86055176 -185.85375977 247.09912109 C-185.04060847 245.73675637 -184.22470367 244.37602819 -183.4050293 243.01757812 C-177.43214103 232.97804253 -172.99005515 222.85315848 -169.52841187 211.70291138 C-165.55223577 198.97956105 -160.93832904 186.64829556 -155.56982422 174.44799805 C-155.27954346 173.78272095 -154.9892627 173.11744385 -154.69018555 172.43200684 C-151.63440828 165.46006679 -148.43733705 158.72185245 -144.25268555 152.34228516 C-135.43764844 136.53866528 -134.78848666 116.86112631 -133.17602539 99.26464844 C-129.9001302 64.0759518 -121.43177751 31.17863697 -93.88232422 6.88549805 C-65.48353622 -15.77567404 -31.19901638 -15.78056698 0 0 Z " fill="#000000" transform="translate(518.88232421875,415.114501953125)"/>
<path d="M0 0 C-1.98752211 6.4298792 -4.46996498 12.46826353 -7.3125 18.5625 C-10.03703916 24.50084993 -12.60492035 30.41281384 -14.8125 36.5625 C-20.9653948 53.61212453 -28.35538371 70.62924365 -38 86 C-39.15775656 87.86836289 -40.31528651 89.73686621 -41.47265625 91.60546875 C-46.21502424 99.23687936 -51.00029976 106.84110333 -55.8046875 114.43359375 C-71.09528332 138.64469929 -84.58353044 163.72932845 -96 190 C-96.30131836 190.68465332 -96.60263672 191.36930664 -96.91308594 192.07470703 C-103.9514154 208.18659549 -107.98799404 225.04258459 -111.3125 242.25 C-111.44164795 242.91717041 -111.5707959 243.58434082 -111.70385742 244.27172852 C-114.08574021 256.67985393 -115.23715051 268.3587435 -115.25 281 C-115.25100708 281.68709045 -115.25201416 282.37418091 -115.25305176 283.08209229 C-115.23724084 299.03763346 -114.79519583 315.27709063 -104 328 C-104 328.66 -104 329.32 -104 330 C-103.34 330 -102.68 330 -102 330 C-100.98460739 330.98436672 -99.98661164 331.98678854 -99 333 C-93.02664579 337.21234176 -87.15758664 337.97646546 -80 337 C-76.80342403 336.13804542 -73.73173202 335.12537048 -70.62890625 333.97265625 C-68 333 -68 333 -65.77734375 332.62109375 C-63.85288732 332.16796343 -63.85288732 332.16796343 -63.05859375 330.33203125 C-62.70925781 329.56246094 -62.35992187 328.79289062 -62 328 C-60.8304449 326.48803547 -59.65877644 324.97758857 -58.4699707 323.48071289 C-50.45059418 313.26348469 -45.26520648 301.8093918 -40 290 C-39.34 290 -38.68 290 -38 290 C-37.16061186 294.9616229 -36.32455716 299.92379234 -35.49145508 304.88647461 C-35.20816916 306.57119545 -34.92400649 308.25576913 -34.63891602 309.94018555 C-34.2269651 312.37509685 -33.81827365 314.81053733 -33.41015625 317.24609375 C-33.28407486 317.98709824 -33.15799347 318.72810272 -33.02809143 319.49156189 C-32.1684576 324.64774229 -31.54174615 329.80058566 -31 335 C-32.74216797 335.81984375 -32.74216797 335.81984375 -34.51953125 336.65625 C-38.92239695 338.85913722 -42.76852652 341.53756278 -46.6875 344.5 C-47.32494141 344.97308594 -47.96238281 345.44617188 -48.61914062 345.93359375 C-51.41229392 348.01476679 -54.14757334 350.12212966 -56.83203125 352.34375 C-59 354 -59 354 -61 354 C-61 354.66 -61 355.32 -61 356 C-62.57716239 357.25033597 -64.21501322 358.42442042 -65.875 359.5625 C-70.95441095 363.14371471 -75.49531965 367.04196677 -80.00390625 371.3125 C-82 373 -82 373 -84 373 C-84 373.66 -84 374.32 -84 375 C-85.2578125 376.234375 -85.2578125 376.234375 -87.125 377.75 C-108.8719371 396.43937125 -124.89362329 419.65521854 -138 445 C-141.97209059 442.07023105 -144.79325504 438.94232661 -147.75 435 C-148.18554199 434.42169434 -148.62108398 433.84338867 -149.06982422 433.24755859 C-149.96345752 432.05983457 -150.85458911 430.87022401 -151.74316406 429.67871094 C-152.84543655 428.20644489 -153.96436851 426.74668212 -155.0859375 425.2890625 C-167.37855696 409.22859033 -178.84343837 392.49107027 -189 375 C-189.52722656 374.09217773 -190.05445313 373.18435547 -190.59765625 372.24902344 C-197.02575598 361.12662117 -203.28113238 349.95070174 -208.85253906 338.37304688 C-210.22827499 335.52790789 -211.62663888 332.69423153 -213.0234375 329.859375 C-225.6342954 304.14395594 -235.72352827 278.14766581 -244.39776611 250.89013672 C-244.9175124 249.25889085 -245.44240336 247.62928582 -245.96826172 246 C-264.04437168 189.44806636 -269.8600152 130.04114603 -269 71 C-258.28690206 67.55447206 -247.45289855 64.69483092 -236.5625 61.875 C-234.68839253 61.38744854 -232.81437066 60.89956795 -230.94042969 60.41137695 C-228.0687153 59.66327132 -225.19695508 58.91534843 -222.32492065 58.16847229 C-216.44692025 56.63963071 -210.57151706 55.1013772 -204.69921875 53.55078125 C-203.95996658 53.35559402 -203.22071442 53.1604068 -202.45906067 52.95930481 C-200.96971798 52.56599116 -199.48038386 52.17264505 -197.99105835 51.77926636 C-186.17851666 48.66008619 -174.35878537 45.56967992 -162.53125 42.5078125 C-160.76506317 42.05052513 -160.76506317 42.05052513 -158.9631958 41.58399963 C-153.16058276 40.0821059 -147.35749237 38.58208898 -141.55371094 37.0847168 C-129.41340419 33.94836411 -117.29377478 30.74520426 -105.18989563 27.47105408 C-96.86602178 25.22307054 -88.52439433 23.05630829 -80.16622925 20.93994141 C-63.56243847 16.7311893 -46.99514577 12.38637224 -30.4375 8 C-28.81810013 7.57204132 -28.81810013 7.57204132 -27.16598511 7.13543701 C-24.08795058 6.32159258 -21.01065355 5.50502107 -17.93359375 4.6875 C-17.01654663 4.4452066 -16.09949951 4.20291321 -15.15466309 3.95327759 C-11.56474189 2.99633969 -8.02947333 2.00984708 -4.50415039 0.83203125 C-2 0 -2 0 0 0 Z " fill="#000000" transform="translate(347,578)"/>
<path d="M0 0 C2.19257351 2.80117536 3.98891314 5.63387778 5.6796875 8.76171875 C6.18991455 9.70354004 6.7001416 10.64536133 7.22583008 11.61572266 C7.77005615 12.62940918 8.31428223 13.6430957 8.875 14.6875 C9.72904419 16.26990479 9.72904419 16.26990479 10.6003418 17.88427734 C15.3095376 26.64073121 19.88870111 35.46223758 24.44995117 44.29638672 C27.97818294 51.10567347 31.63481484 57.80930927 35.51171875 64.42578125 C36.7610185 66.58664354 37.91640423 68.75273981 39 71 C34.91948028 69.31802968 31.8877371 66.44813911 28.625 63.5625 C21.61086562 57.44959708 14.37379323 51.67140034 7 46 C6.24976563 45.40316406 5.49953125 44.80632812 4.7265625 44.19140625 C3.07526726 42.81068316 3.07526726 42.81068316 1 43 C0.6596875 43.91136719 0.319375 44.82273437 -0.03125 45.76171875 C-1.37228598 49.34896643 -2.71900651 52.93406027 -4.06738281 56.51855469 C-4.69288048 58.18283696 -5.31721603 59.84755642 -5.94042969 61.51269531 C-16.9422089 90.88441781 -16.9422089 90.88441781 -23 103 C-15.08 100.03 -7.16 97.06 1 94 C4.30966904 97.30966904 5.32337388 100.1805627 6.70703125 104.5 C6.95332275 105.24435806 7.19961426 105.98871613 7.45336914 106.75563049 C8.24882114 109.16754967 9.03110947 111.58349236 9.8125 114 C10.35123021 115.64724267 10.89053712 117.29429684 11.43041992 118.94116211 C12.48648513 122.16847865 13.5367658 125.39758801 14.58203125 128.62841797 C15.75719947 132.25905793 16.95214726 135.88274434 18.15625 139.50390625 C18.70922576 141.18981171 19.26141472 142.87597564 19.8125 144.5625 C20.06040283 145.30306641 20.30830566 146.04363281 20.5637207 146.80664062 C22.11532818 151.65401547 22.11532818 151.65401547 21 155 C20.113125 154.05125 19.22625 153.1025 18.3125 152.125 C13.51839625 147.33089625 8.12999672 143.3483125 2.71386719 139.29931641 C0.99898886 137.99923344 -0.68600026 136.66749621 -2.3671875 135.32421875 C-2.90448486 134.90188965 -3.44178223 134.47956055 -3.99536133 134.04443359 C-5.4822233 132.87560582 -6.96202705 131.69781563 -8.44140625 130.51953125 C-10.79927087 128.81251943 -10.79927087 128.81251943 -13.05859375 129.05078125 C-20.44901706 132.66420754 -26.49335395 139.30126573 -32.46679688 144.86083984 C-35.71610035 147.87049162 -39.04676033 150.7225022 -42.5 153.5 C-47.60894196 157.61369353 -52.41948091 161.98524083 -57.2265625 166.44140625 C-60.09030464 169.08330921 -63.00777743 171.64942406 -65.953125 174.19921875 C-68.44074726 176.38775665 -70.87353452 178.63239191 -73.3125 180.875 C-79.93415278 186.91564425 -86.79393009 192.6665051 -94 198 C-91.81805683 191.05486062 -89.11301569 184.50836265 -86.125 177.875 C-76.47032834 156.16712276 -67.22632075 134.29308069 -59 112 C-59.71800781 112.57105469 -60.43601562 113.14210938 -61.17578125 113.73046875 C-67.74798452 118.87855824 -74.44656162 123.71654691 -81.375 128.375 C-87.92971635 132.79530649 -94.19307566 137.41270196 -100.30957031 142.41845703 C-105.90329456 146.9798822 -111.69185658 151.24346587 -117.52026367 155.4987793 C-123.67923241 160.0040023 -129.75659271 164.60737457 -135.8125 169.25 C-142.87952014 174.66310559 -150.00701517 179.95645553 -157.28515625 185.08203125 C-158.96672817 186.27001947 -160.62608128 187.49106549 -162.24609375 188.76171875 C-164 190 -164 190 -166 190 C-166.1170409 180.59771406 -165.88495497 171.37104106 -165 162 C-175.87720154 167.95399858 -186.45303129 174.31183306 -196.97265625 180.875 C-201.12207527 183.46245859 -205.29731888 186.00022495 -209.5 188.5 C-216.67281004 192.77080266 -223.76625532 197.167531 -230.85742188 201.57226562 C-232.52620773 202.60880205 -234.19635643 203.64314911 -235.86816406 204.67480469 C-237.58904326 205.74454041 -239.29337785 206.84086445 -240.9921875 207.9453125 C-241.98605469 208.46738281 -241.98605469 208.46738281 -243 209 C-243.66 208.67 -244.32 208.34 -245 208 C-239.17313814 202.12687072 -233.34094818 196.25910753 -227.50181007 190.39818573 C-224.79085886 187.67678134 -222.08180582 184.9535412 -219.37695312 182.22607422 C-216.76830485 179.59575215 -214.15485194 176.97029488 -211.53794479 174.34819031 C-210.53861912 173.34515903 -209.54106023 172.34036439 -208.54527664 171.33381653 C-207.1541265 169.92822458 -205.75618259 168.5293663 -204.35791016 167.13085938 C-203.56293121 166.33143921 -202.76795227 165.53201904 -201.94888306 164.70837402 C-200 163 -200 163 -198 163 C-197.74943848 162.42419189 -197.49887695 161.84838379 -197.24072266 161.25512695 C-195.83143301 158.69361407 -194.22091237 156.9781505 -192.1484375 154.91796875 C-190.99408203 153.76651367 -190.99408203 153.76651367 -189.81640625 152.59179688 C-189.01074219 151.79837891 -188.20507812 151.00496094 -187.375 150.1875 C-186.59253906 149.40568359 -185.81007813 148.62386719 -185.00390625 147.81835938 C-181.45679982 144.29772389 -177.88898872 140.85688972 -174.0859375 137.61328125 C-170.80581084 134.79188214 -167.78050054 131.7907604 -164.765625 128.6875 C-163.86199219 127.75808594 -162.95835937 126.82867187 -162.02734375 125.87109375 C-160.62563606 124.42207103 -159.22412056 122.97279936 -157.83447266 121.51220703 C-156.46890267 120.08037022 -155.08625547 118.66488096 -153.703125 117.25 C-152.89520508 116.40953125 -152.08728516 115.5690625 -151.25488281 114.703125 C-149 113 -149 113 -146.85229492 113.13867188 C-144.33206378 114.3105943 -142.27830649 115.82065193 -140.0625 117.5 C-135.70040595 120.75388637 -131.29422883 123.91468482 -126.8125 127 C-126.2357251 127.39767578 -125.6589502 127.79535156 -125.06469727 128.20507812 C-123.71057588 129.13784876 -122.35540792 130.06909981 -121 131 C-113.70672553 125.10331 -107.76744183 118.17852172 -101.625 111.125 C-98.21490812 107.20970933 -94.70764923 103.38589878 -91.19018555 99.56738281 C-88.241064 96.36372249 -85.32956026 93.1304873 -82.4375 89.875 C-78.5559468 85.5421034 -74.47049959 81.45331728 -70.3359375 77.36328125 C-67.71557478 74.71224539 -65.26758448 71.95861867 -62.84375 69.12890625 C-59.83914144 65.65960188 -56.72422702 62.29093214 -53.625 58.90625 C-51.61587527 56.68186191 -49.63974449 54.4394591 -47.67578125 52.17578125 C-43.95304813 47.90958344 -40.08547058 43.79323642 -36.1875 39.6875 C-28.28184437 31.32275341 -20.48527289 22.88223129 -12.9375 14.19140625 C-8.69754202 9.39580862 -4.33805039 4.70674545 0 0 Z " fill="#FFFFFF" transform="translate(896,280)"/>
<path d="M0 0 C5.18040187 4.69473919 8.97667219 10.31379064 13 16 C28.13483809 37.64574255 28.13483809 37.64574255 47 56 C43.01701551 56 41.2564867 54.4697957 37.875 52.375 C28.84920391 46.98736048 19.04804106 43.39667848 8.82421875 40.99609375 C5.4363754 40.11366264 2.75636017 39.07716213 -0.3125 37.4375 C-2.90180827 36.06764617 -5.21283651 34.9290545 -8 34 C-6.77960916 39.67564019 -5.55257246 45.34978912 -4.31958008 51.02270508 C-3.90177168 52.94940052 -3.48572471 54.87647886 -3.0715332 56.80395508 C-2.47298887 59.58779844 -1.86794676 62.37016482 -1.26171875 65.15234375 C-1.08033859 66.00271713 -0.89895844 66.85309052 -0.71208191 67.72923279 C0.36698378 72.64709001 1.7064302 77.34943453 3.42326355 82.08448792 C4 84 4 84 4 87 C0.76879704 86.34593456 -1.71994243 85.18015522 -4.578125 83.55078125 C-5.48079102 83.03878174 -6.38345703 82.52678223 -7.31347656 81.99926758 C-8.2825293 81.44263428 -9.25158203 80.88600098 -10.25 80.3125 C-11.25256836 79.74104248 -12.25513672 79.16958496 -13.28808594 78.58081055 C-43.66237795 61.22508137 -43.66237795 61.22508137 -50 57 C-54.99207727 57.28600634 -58.5629823 58.51261648 -62.88671875 60.95703125 C-64.5265271 61.87500488 -64.5265271 61.87500488 -66.19946289 62.81152344 C-67.36241318 63.47804255 -68.52508617 64.14504572 -69.6875 64.8125 C-70.89734361 65.4970585 -72.10755302 66.18097088 -73.31811523 66.86425781 C-83.65823173 72.72168279 -93.86462589 78.79611152 -104 85 C-105.74334588 86.06273578 -107.48683765 87.12523225 -109.23046875 88.1875 C-113.49086802 90.78535409 -117.74672372 93.39050199 -122 96 C-122 92.32180832 -121.23156682 91.77617345 -118.8125 89.125 C-118.17570313 88.42632812 -117.53890625 87.72765625 -116.8828125 87.0078125 C-116.26148438 86.34523438 -115.64015625 85.68265625 -115 85 C-114.50242187 84.46117187 -114.00484375 83.92234375 -113.4921875 83.3671875 C-112.37582055 82.19734189 -111.19342109 81.09112786 -110 80 C-109.34 80 -108.68 80 -108 80 C-107.67 79.01 -107.34 78.02 -107 77 C-105.58127897 75.81773248 -104.15857734 74.6398711 -102.71484375 73.48828125 C-100.92836365 71.93782814 -99.46287525 70.30686595 -97.9375 68.5 C-94.64579472 64.62913054 -91.11214683 61.06719295 -87.5 57.5 C-83.44279721 53.48387703 -79.50274151 49.44727989 -75.80859375 45.08984375 C-73.88931184 42.872099 -71.90176525 40.7244352 -69.90405273 38.57739258 C-65.27322252 33.5965712 -60.94775239 28.54819254 -57 23 C-52.69624419 23.74764577 -50.33028889 26.0311225 -47.09765625 28.8203125 C-45.05003391 30.240254 -45.05003391 30.240254 -42.61474609 29.7355957 C-39.91237776 28.9753496 -38.30454948 28.07697877 -36.06640625 26.41015625 C-35.34179199 25.877854 -34.61717773 25.34555176 -33.87060547 24.79711914 C-33.10893066 24.22469482 -32.34725586 23.65227051 -31.5625 23.0625 C-29.95211706 21.87460114 -28.34143656 20.68710557 -26.73046875 19.5 C-25.93302246 18.90832031 -25.13557617 18.31664062 -24.31396484 17.70703125 C-21.02991716 15.28436176 -17.70470538 12.92178938 -14.375 10.5625 C-9.52773421 7.11296704 -4.73678333 3.59995533 0 0 Z " fill="#FFFFFF" transform="translate(1088,416)"/>
</svg>
